<?xml version="1.0" standalone="no"?>
<!DOCTYPE svg PUBLIC "-//W3C//DTD SVG 20010904//EN"
 "http://www.w3.org/TR/2001/REC-SVG-20010904/DTD/svg10.dtd">
<svg version="1.0" xmlns="http://www.w3.org/2000/svg"
 width="225.000000pt" height="225.000000pt" viewBox="0 0 225.000000 225.000000"
 preserveAspectRatio="xMidYMid meet">

<g transform="translate(0.000000,225.000000) scale(0.100000,-0.100000)"
fill="#000000" stroke="none">
<path d="M1058 1881 c-27 -24 -33 -36 -33 -71 0 -35 6 -47 33 -71 56 -50 129
-33 158 37 14 32 12 48 -8 90 -24 50 -102 58 -150 15z"/>
<path d="M733 1801 c-83 -52 -48 -181 49 -181 50 0 74 13 93 50 22 43 18 76
-12 110 -37 40 -86 48 -130 21z"/>
<path d="M1430 1813 c-56 -20 -83 -89 -56 -141 20 -39 44 -52 94 -52 29 0 46
7 66 26 28 29 36 87 16 125 -19 35 -80 57 -120 42z"/>
<path d="M541 1526 c-20 -24 8 -135 62 -241 52 -105 106 -171 302 -378 256
-270 305 -338 342 -482 l19 -70 119 0 120 0 -2 71 c-3 108 -49 216 -160 372
l-44 63 103 107 c180 185 272 328 304 472 15 63 15 74 2 86 -13 13 -24 12 -94
-10 -43 -14 -97 -30 -120 -35 -36 -10 -43 -17 -65 -63 -13 -29 -44 -79 -68
-113 -52 -71 -220 -245 -236 -245 -19 0 -206 199 -248 263 -21 31 -47 77 -58
102 -17 38 -25 46 -62 55 -23 6 -77 22 -120 35 -92 29 -82 28 -96 11z"/>
<path d="M997 1433 c-15 -15 -5 -52 29 -103 43 -66 83 -110 100 -110 19 0 83
78 112 136 39 80 34 84 -111 84 -68 0 -127 -3 -130 -7z"/>
<path d="M867 736 c-61 -65 -131 -256 -125 -338 l3 -43 119 0 120 0 16 65 c9
36 24 82 33 104 9 21 17 46 17 56 0 17 -124 163 -148 174 -7 3 -23 -5 -35 -18z"/>
</g>
</svg>
